<svg viewBox="0 0 472 618" xmlns="http://www.w3.org/2000/svg">
  <g id="hero-main" fill="none" fill-rule="evenodd">
    <path d="M110.59 577.517c0 15.124 80.8 27.384 180.472 27.384 99.67 0 180.47-12.26 180.47-27.384s-80.8-27.384-180.47-27.384c-99.671 0-180.471 12.26-180.471 27.384" id="h-shadow" fill="#EEF0F0"/>
    <g id="hp-group" transform="translate(289 271)">
      <path d="M26.384 113.504L13.652 81.12s2.213-6.09 2.213-8.304c0-2.214-.276-3.599 1.108-4.429 1.384-.83 0-4.013-1.245-3.32-1.246.69-3.184 4.566-3.184 4.566l-.83-2.768s3.875-7.197 3.875-8.304c0-1.107-.969-2.353-1.66-2.214-.692.138-2.354 4.428-3.322 5.535-.969 1.108-2.077 2.63-2.077 2.63v-2.215s4.014-5.674 4.291-6.643c.277-.968.553-1.66-.416-1.798-.968-.139-5.397 4.982-6.088 5.812-.693.831-1.384 2.63-1.523 3.322-.139.692 0 3.044 0 3.044s-1.246-4.567-1.384-5.812c-.138-1.246.415-4.152 0-5.12-.416-.97-1.799-.555-2.353 0-.553.552.277 5.95 0 7.195-.277 1.246-.194 11.35-.194 11.35s.748 7.193 1.716 10.032c.97 2.838 18.823 46.434 18.823 46.434s2.768 4.982 8.996.692c6.227-4.29 8.364-5.354 8.364-5.354l-6.92-17.16-5.458 5.214z" id="hp-armLeft" fill="#B07B3E"/>
      <g id="hp-legsGroup" transform="translate(4 175)">
        <g id="hp-shoeRight" transform="translate(83 103)">
          <path d="M17.425 2.176l1.218 12.225s-8.998 6.766-11.648 6.845c-2.65.08-2.565-1.8-2.565-1.8L2.207 7.218 2.72.637l14.705 1.54z" id="Fill-46" fill="#0A0C0C"/>
          <path d="M23.07 22.215s0-10.24-4.982-10.24-9.868 4.15-11.854 5.12c-1.985.968-3.093-4.95-3.093-4.95L.926 31.902h35.43s.554-7.75-13.286-9.688" id="Fill-104" fill="#F0615C"/>
          <path id="Fill-108" fill="#B3B7B7" d="M.926 35.653h35.43v-3.75H.926z"/>
          <path id="Fill-113" fill="#F1F1F2" d="M7.295 31.903l4.251-5.767-2.134-1.573-5.41 7.34z"/>
          <path id="Fill-114" fill="#F1F1F2" d="M13.442 31.903l2.229-3.023-2.134-1.574-3.388 4.597z"/>
        </g>
        <g id="hp-shoeLeft" transform="translate(0 107)">
          <path d="M44.152 1.805L45.4 14.337s-9.225 6.938-11.941 7.019c-2.717.081-2.63-1.848-2.63-1.848L28.55 6.976l.528-6.748 15.074 1.577z" id="Fill-48" fill="#0A0C0C"/>
          <g id="Group-2" transform="translate(0 7)">
            <path d="M44.826 1.452l2.536 19.45H.61s.213-8.72 7.963-9.57c7.75-.85 13.073-3.4 15.842-3.42 2.767-.018 4.15-6.939 4.15-6.939s3.046 3.994 8.029 4.625c4.982.635 8.23-4.146 8.23-4.146" id="Fill-106" fill="#F0615C"/>
            <path id="Fill-110" fill="#B3B7B7" d="M.611 24.653h46.751v-3.75H.611z"/>
            <path id="Fill-111" fill="#F1F1F2" d="M29.134 20.903l-4.25-5.767 2.133-1.573 5.411 7.34z"/>
            <path id="Fill-112" fill="#F1F1F2" d="M22.988 20.903l-2.23-3.023 2.135-1.574 3.389 4.597z"/>
          </g>
        </g>
        <path d="M101.148.564l6.584 114.41H83.22S80.939 13.112 65.672 13.481c-6.078.147-17.994 101.493-17.994 101.493h-26.92L37.57 2.55 101.148.564z" id="hp-pants" fill="#1D5269"/>
      </g>
      <g id="hp-shirt" transform="translate(30 82)">
        <path d="M52.56.798s15.135.474 20.302 5.1c5.166 4.628 15.014 19.39 15.753 38.582L71.22 47.8l5.159 50.655s-58.306 1.2-63.66 0c-5.354-1.2 2.306-56.458 2.306-56.458L8.61 45.53.878 25.36S17.97 6.085 22.818 3.877C27.664 1.669 44.636.346 52.56.797" id="Fill-52" fill="#3CBDB1"/>
        <path d="M62.377 98.412c.123-12.997.06-31.353-.939-45.21-1.17-16.24-9.833-39.487-15.276-52.744 2.296-.056 4.39-.04 6.072.055 0 0 15.135.474 20.302 5.101 5.167 4.628 15.015 19.39 15.753 38.581l-17.394 3.321 5.16 50.654s-5.69.117-13.678.242" id="Fill-54" fill="#6BC7C0"/>
      </g>
      <g id="briefcase" transform="translate(68 193)">
        <path d="M41.414.8a6.8 6.8 0 0 0-4.429 1.703 5.261 5.261 0 0 0-1.807 4.023l.221 9.1 5.434-.133-.22-9.099a.58.58 0 0 1 .209-.439 1.04 1.04 0 0 1 .668-.253l13.321-.323c.245-.01.486.068.68.22.137.101.22.258.231.428l.221 9.1 5.483-.133-.22-9.099a5.26 5.26 0 0 0-1.999-3.931A6.774 6.774 0 0 0 54.734.477L41.414.8z" id="Clip-155" fill="#4F352E"/>
        <g id="Group-8" transform="translate(0 13)">
          <path d="M88.813 1.001L4.808 3.039a3.905 3.905 0 0 0-3.807 3.996l1.242 51.122a3.902 3.902 0 0 0 3.996 3.807l84.003-2.038a3.903 3.903 0 0 0 3.806-3.996l-1.24-51.122A3.902 3.902 0 0 0 88.91 1l-.096.001z" id="Clip-164" fill="#6D4D41"/>
          <path id="Clip-167" fill="#5E3F37" d="M7.098 2.981L1 9.69l1.107 45.623 6.908 6.271 39.926-.968L47.519 2z"/>
          <g id="Group-3" transform="translate(0 2)">
            <path d="M7.648.041l.008.02L1.924.2C1.176.218.584.84.602 1.588l.147 6.063a.28.28 0 0 0 .485.182L7.861.509a.28.28 0 0 0-.204-.468h-.009z" id="Mask" fill="#FBB54C"/>
            <path d="M5.427.641a.638.638 0 0 0-.425 1.102.641.641 0 0 0 .7.122.64.64 0 0 0-.258-1.224h-.017z" id="Clip-176" fill="#F89A1F"/>
            <path d="M1.795 4.3a.64.64 0 0 0 .031 1.279.638.638 0 0 0 .623-.655.638.638 0 0 0-.639-.624h-.015z" id="Clip-179" fill="#F89A1F"/>
          </g>
          <g id="Group-4" transform="translate(1 54)">
            <path d="M1.095.731a.28.28 0 0 0-.162.263l.14 5.731c.017.748.638 1.34 1.387 1.322L8.523 7.9a.279.279 0 0 0 .178-.485L1.4.781a.271.271 0 0 0-.189-.075.282.282 0 0 0-.116.025z" id="Clip-182" fill="#FBB54C"/>
            <path d="M2.137 2.568a.639.639 0 1 0 .016 0h-.016z" id="Clip-185" fill="#F89A1F"/>
            <path d="M5.752 6.109a.639.639 0 1 0 .032 1.277.639.639 0 0 0-.032-1.277z" id="Clip-188" fill="#F89A1F"/>
          </g>
          <g id="Group-5" transform="translate(87 52)">
            <g id="Group-6">
              <path d="M7.229.137L.595 7.442a.28.28 0 0 0-.05.305.28.28 0 0 0 .263.163l5.731-.14a1.357 1.357 0 0 0 1.323-1.388L7.715.32a.279.279 0 0 0-.486-.183z" id="Clip-191" fill="#FBB54C"/>
              <path d="M3.673 5.928a.64.64 0 1 0 .014 0h-.014z" id="Clip-194" fill="#F89A1F"/>
              <path d="M6.814 2.645a.641.641 0 0 0-.425 1.102.64.64 0 1 0 .44-1.102h-.015z" id="Clip-197" fill="#F89A1F"/>
            </g>
          </g>
          <path id="Clip-200" fill="#FBB54C" d="M20 2.188l1.471 58.503 8.022-.188L28.022 2z"/>
          <path id="Clip-203" fill="#FBB54C" d="M68 1.187l1.469 58.504 8.023-.19L76.022 1z"/>
          <g id="Group-7" transform="translate(85)">
            <path d="M7.177.174L1.115.322a.276.276 0 0 0-.253.18.28.28 0 0 0 .074.303L8.237 7.44a.28.28 0 0 0 .468-.213v.004l-.14-5.735A1.354 1.354 0 0 0 7.211.174h-.034z" id="Mask" fill="#FBB54C"/>
            <path d="M7.624 3a.64.64 0 1 0 .014 0h-.014z" id="Clip-194" fill="#F89A1F"/>
            <path d="M4.623 1a.641.641 0 0 0-.425 1.102A.64.64 0 1 0 4.638 1h-.015z" id="Clip-197" fill="#F89A1F"/>
          </g>
        </g>
      </g>
      <path d="M117 127c2.174 3 4.91 12.137 6.62 21.587 1.713 9.451-1.981 39.053-1.378 40.43.6 1.377 1.31 8.923-.034 9.558-.316.15-2 1.255-2-1 0-3-.081-7.17-.081-7.17s.038 5.563-.953 7.87c-.99 2.306-2.668 1.337-2.966.3-.346-1.203.07-4.556 0-7-.072-2.444.94 5.31 0 7-.941 1.69-4.034 1.522-4 0 .033-1.52 1.597-6.317 1.475-6.856-.123-.54-.87 5.038-1.475 6.856-1 3-2.772 1.84-3 0-.23-1.84.09-6.996.287-7.797.196-.802.05-4.175-1.677.002-1.726 4.177-1.841 6.285-3.227 6.79-1.386.503-2.383-.995-2.383-.995s0-1 .58-2.003c.745-1.287.138-6.885 1.153-9.082 1.015-2.197 3.273-7.25 5.424-9.443 2.15-2.192 1.98-21.266.28-25.42-1.701-4.156-8.384-21.56-8.384-21.56L117 127z" id="hp-armRight" fill="#B07B3E"/>
      <g id="headGroupAll" transform="translate(21)">
        <path d="M62.202 69.618l-1.063 21.81s1.771 4.687-11.574 4.547c-13.343-.14-3.056-26.357-3.056-26.357h15.693z" id="hp-neck" fill="#8C5925"/>
        <g id="headGroupMain">
          <g id="hat-backGroup" transform="translate(0 25)" fill="#452E28">
            <path d="M23.89.486S3.858.25.922 8.16c-2.935 7.91 21.673 10.755 21.673 10.755l4.612-1.34 1-16L23.89.486z" id="Fill-1"/>
            <path d="M78.095 2.935s20.112 3.64 21.67 10.81c1.79 8.246-22.965 7.62-22.965 7.62l-7.593.21 5-17 3.888-1.64z" id="Fill-3"/>
          </g>
          <path d="M22.02 36.298a3.272 3.272 0 1 0 6.545 0 3.272 3.272 0 0 0-6.544 0" id="hp-hairExtra" fill="#0A0C0C"/>
          <g id="hp-face" transform="translate(22 18)">
            <path d="M3.273 44.955c6.874 15.66 23 22.45 36.019 15.167 13.018-7.283 17.999-25.88 11.125-41.54-6.874-15.66-23-22.45-36.02-15.168C1.38 10.697-3.6 29.295 3.274 44.955" id="Fill-58" fill="#B07B3E"/>
            <path d="M14.398 3.414c.146-.082.293-.15.438-.229 3.09 9.115 6.513 19.827 6.513 22.59 0 5.036 1.115 8.562 0 12.34-1.116 3.777-2.454 5.54 1.56 5.791 4.016.252 5.132-2.014 5.132-2.014s-5.004 11.97-2.725 20.968C16.31 61.71 7.793 55.25 3.273 44.955c-6.874-15.66-1.893-34.258 11.125-41.54" id="Fill-60" fill="#8C5925"/>
          </g>
          <path d="M25.854 33.54a1.92 1.92 0 1 1-2.435-1.676 3.273 3.273 0 0 1 1.742-4.638 4.628 4.628 0 0 1 2.831-5.765 6.212 6.212 0 0 1 4.803-6.326C33.546 9.41 38.444 4.99 44.373 4.99c3.351 0 6.372 1.412 8.502 3.674.466-.067.942-.102 1.426-.102a9.905 9.905 0 0 1 7.492 3.414 6.208 6.208 0 0 1 11.033 5.166 6.21 6.21 0 0 1 3.393 8.004 3.273 3.273 0 0 1 2.039 4.966 3.268 3.268 0 0 1 .214 3.155 3.272 3.272 0 0 1-.284 5.425 3.269 3.269 0 0 1-.628 4.427 3.27 3.27 0 0 1-4.583 3.205 3.271 3.271 0 0 1-1.769-4.086 3.272 3.272 0 0 1-2.119-4.01 6.21 6.21 0 0 1-5.256-9.157 6.196 6.196 0 0 1-4.304-2.139 9.88 9.88 0 0 1-5.227 1.487 9.884 9.884 0 0 1-4.827-1.25 11.628 11.628 0 0 1-5.102 1.171c-2.46 0-4.743-.76-6.625-2.06a6.182 6.182 0 0 1-3.826 1.108 4.628 4.628 0 0 1-4.36 3.052 3.272 3.272 0 0 1-3.707 3.1z" id="hp-hairMain" fill="#0A0C0C"/>
          <path d="M60.25 37.793a5.658 5.658 0 0 0-3.31-.465 5.659 5.659 0 0 0-2.998 1.476l-3.209.514a7.963 7.963 0 0 1 12.725-2.039l-3.209.514z" id="hp-browRight" fill="#0A0C0C"/>
          <path d="M37.08 39.434a5.66 5.66 0 0 0-3.31-.465 5.656 5.656 0 0 0-2.998 1.476l-3.21.514a7.97 7.97 0 0 1 5.844-4.262 7.966 7.966 0 0 1 6.883 2.223l-3.21.514z" id="hp-browLeft" fill="#0A0C0C"/>
          <path d="M24.221 48.702c.211 1.894 3.163 7.495 9.41 7.723 6.248.228 7.315-11.271 7.315-11.271-.55-1.371-5.012-2.34-8.799-1.92-3.786.423-8.137 3.575-7.926 5.468zm26.235 1.946c.866 1.805 2.603 3.62 6.984 3.167 4.381-.455 10.056-4.678 10.34-12.071 0 0-4.757-1.53-9.604-.892-4.847.637-7.477 2.653-7.477 2.653s-1.109 5.337-.243 7.143zM23.02 44.984s6.53-3.96 11.527-3.93c4.997.028 7.008 1.889 7.008 1.889s2.031-1.471 3.986-1.672c1.956-.201 4.502.719 4.502.719s3.561-3.022 8.558-2.994c4.996.029 14.256 2.277 14.256 2.277l-.24 1.5-3.657 1.212s-1.722 9.984-9.704 11.787c-7.982 1.803-10.79-3.903-10.846-5.964-.055-2.061.338-5.332.338-5.332s1.205-.32-1.488-1.52c-2.694-1.2-4.839 1.792-4.583 2.602.255.81-1.037 12.915-10.096 12.623-9.057-.293-9.39-9.451-9.39-9.451l-1.987-1.215.44-2.751 1.376.22z" id="hp-glasses" fill="#F0625B"/>
          <path d="M57.871 46.106a2.093 2.093 0 1 0-4.185 0 2.093 2.093 0 0 0 4.185 0" id="hp-eyeRight" fill="#0A0C0C"/>
          <path d="M35.624 48.419a2.093 2.093 0 1 0-4.185 0 2.093 2.093 0 0 0 4.185 0" id="hp-eyeLeft" fill="#0A0C0C"/>
          <path d="M39.684 68.186c1.476 1.99 4.208 3.331 7.347 3.331 3.138 0 5.87-1.34 7.346-3.33h1.714c-1.608 2.67-5.056 4.521-9.06 4.521-4.005 0-7.452-1.85-9.061-4.522h1.714z" id="hp-mouth" fill="#0A0C0C"/>
          <path d="M69.578 45.251a5.765 5.765 0 1 1 11.53 0 5.765 5.765 0 0 1-11.53 0" id="hp-ear" fill="#B07B3E"/>
          <g id="hat-mainGroup" transform="translate(1 .901)">
            <path d="M78.555 23.21c-.102-.028-.2-.058-.302-.087l.453.03-2.408-11.936a6.356 6.356 0 0 0-1.805-3.326C71.955 5.449 65.714 1.269 52.315.58 39.135-.096 31.08 2.576 27.346 4.303a5.35 5.35 0 0 0-2.998 3.728L21.96 19.139C15.451 21.454 2.734 26.509.302 31.44c0 0 16.545-8.21 52.25-5.701 35.703 2.509 45.682 10.644 45.682 10.644s-8.104-9.8-19.679-13.173" id="Fill-213" fill="#6D4D41"/>
            <path d="M44.207.59c-8.462.474-13.967 2.374-16.86 3.712a5.349 5.349 0 0 0-2.999 3.729L21.96 19.139C15.451 21.453 2.733 26.508.302 31.441c0 0 13.968-6.918 43.905-6.104V.59z" id="Fill-215" fill="#5E3F37"/>
            <path d="M23.196 13.393s24.53-8.346 54.312 3.816l1.032 5.117s-7.701-4.2-27.236-5.581c-19.533-1.382-29.176 1.617-29.176 1.617l1.068-4.97z" id="Fill-217" fill="#FBB54C"/>
            <path d="M44.207 16.413v-5.808c-12.747-.015-21.012 2.787-21.012 2.787L23 14.3l-.873 4.062s7.308-2.27 22.08-1.949" id="Fill-219" fill="#F89A1F"/>
          </g>
        </g>
      </g>
    </g>
    <g id="mapGroupAll" transform="translate(0 29)">
      <path id="map-frame" fill="#DDE0E0" d="M0 342.734h279.82V90.911H0z"/>
      <path id="map-bg1" fill="#EEF0F1" d="M6.087 337.256h267.646V96.389H6.087z"/>
      <path d="M38.037 96.389h199.985c7.201 7.368 16.26 14.038 25.483 16.542 3.311.9 6.82 1.047 10.228 1.495v222.83H161.607c-9.627-11.06-8.58-10.527-12.59-27.512-1.594-6.74-4.689-13.868-10.96-16.808-13.443-6.302-26.39-12.628-41.236-12.482-10.722.105-19.303-8.587-25.866-17.067-8.377-10.825-40.635-26.49-43.443-39.888-3.766-17.975 1.326-36.82-1.712-54.933-1.33-7.93-4.216-15.757-3.546-23.77 1.188-14.214 13.188-25.552 15.326-39.655.434-2.862.457-5.81.457-8.752z" id="map-bg2" fill="#F6F7F9"/>
      <g id="h-locationGroupAll" transform="translate(8)">
        <g id="h-locationGroup">
          <path d="M102.63 51.84C102.63 23.67 79.681.9 51.492.9 23.302.9.353 23.76.353 51.84s51.139 100.89 51.139 100.89S102.63 80.01 102.63 51.84" id="hero-locationPin" fill="#FCBF12"/>
          <path d="M51.401 12.87c21.158 0 38.309 17.084 38.309 38.16 0 21.075-17.151 38.16-38.309 38.16-21.157 0-38.309-17.085-38.309-38.16 0-21.076 17.152-38.16 38.31-38.16" id="hero-locationCircle" fill="#FFF"/>
        </g>
        <g id="burgerGroup" transform="translate(27 29)">
          <path d="M42.406 41.429H6.396c-3.404 0-6.164-2.75-6.164-6.14v-1.396c0-1.352 1.1-2.447 2.457-2.447h43.424a2.452 2.452 0 0 1 2.457 2.447v1.396c0 3.39-2.76 6.14-6.164 6.14" id="bun2" fill="#D86027"/>
          <path d="M45.716 31.64H3.086a2.848 2.848 0 0 1-2.854-2.842v-4.195a2.849 2.849 0 0 1 2.855-2.843h42.629a2.849 2.849 0 0 1 2.854 2.843v4.195a2.848 2.848 0 0 1-2.854 2.843" id="patty" fill="#921A1D"/>
          <path d="M28.189 21.807H2.142a1.906 1.906 0 0 1-1.91-1.902v-.278c0-1.052.855-1.903 1.91-1.903H46.66c1.054 0 1.91.851 1.91 1.903v.278a1.9 1.9 0 0 1-.963 1.652l-3.284 5.144-16.134-4.894z" id="cheese" fill="#FCC02D"/>
          <path d="M46.66 17.883H2.142a1.906 1.906 0 0 1-1.91-1.902v-.28c0-1.05.855-1.902 1.91-1.902H46.66c1.054 0 1.91.852 1.91 1.903v.279a1.906 1.906 0 0 1-1.91 1.902" id="lettuce" fill="#2D9B47"/>
          <path d="M47.306 14.044H1.496a1.261 1.261 0 0 1-1.264-1.259v-.902C.232 5.78 5.2.831 11.328.831h26.147c6.128 0 11.095 4.948 11.095 11.052v.902c0 .696-.566 1.26-1.264 1.26" id="bun1" fill="#D86027"/>
          <g id="sesame" transform="translate(14 3)" fill="#E27325">
            <path d="M5.286 1.238a1.05 1.05 0 0 1-1.052 1.049c-.581 0-1.053-.47-1.053-1.049 0-.58.472-1.048 1.053-1.048a1.05 1.05 0 0 1 1.052 1.048" id="Fill-124"/>
            <path d="M11.454 1.238A1.05 1.05 0 0 1 10.4 2.287c-.58 0-1.052-.47-1.052-1.049C9.349.658 9.82.19 10.4.19a1.05 1.05 0 0 1 1.053 1.048" id="Fill-125"/>
            <path d="M17.621 1.238a1.05 1.05 0 0 1-1.052 1.049c-.581 0-1.053-.47-1.053-1.049 0-.58.472-1.048 1.053-1.048a1.05 1.05 0 0 1 1.052 1.048" id="Fill-126"/>
            <path d="M8.37 5.574c0 .58-.47 1.049-1.053 1.049a1.05 1.05 0 0 1-1.052-1.049c0-.58.471-1.048 1.052-1.048A1.05 1.05 0 0 1 8.37 5.574" id="Fill-127"/>
            <path d="M14.537 5.574c0 .58-.47 1.049-1.052 1.049a1.05 1.05 0 0 1-1.053-1.049c0-.58.472-1.048 1.053-1.048a1.05 1.05 0 0 1 1.052 1.048" id="Fill-128"/>
            <path d="M20.705 5.574c0 .58-.47 1.049-1.053 1.049A1.05 1.05 0 0 1 18.6 5.574c0-.58.471-1.048 1.052-1.048a1.05 1.05 0 0 1 1.053 1.048" id="Fill-129"/>
            <path d="M2.202 5.574c0 .58-.47 1.049-1.052 1.049A1.05 1.05 0 0 1 .097 5.574c0-.58.472-1.048 1.053-1.048a1.05 1.05 0 0 1 1.052 1.048" id="Fill-130"/>
          </g>
        </g>
      </g>
      <g id="h-pathGroup" transform="translate(59 161)" fill="#E22D29">
        <path d="M178.065 87.868a4.68 4.68 0 1 0 0-9.36 4.68 4.68 0 0 0 0 9.36" id="h-pathStart"/>
        <path d="M173.826 103.053a12.113 12.113 0 0 0 1.68-6.18v-.25h-3v.25a9.08 9.08 0 0 1-1.26 4.66l2.58 1.53v-.01z" id="h-path1"/>
        <path d="M162.446 109.063h.9a12.09 12.09 0 0 0 5.64-1.4l-1.4-2.65a9.1 9.1 0 0 1-4.25 1.06h-.67l-.22 3v-.01z" id="h-path2"/>
        <path id="h-path3" d="M150.726 105.693l5.65 1.8.91-2.86-5.65-1.8z"/>
        <path d="M139.066 103.113a12.096 12.096 0 0 0 5.41 1.28c.38 0 .77 0 1.16-.06l-.29-3h-.88a9.077 9.077 0 0 1-4.07-1l-1.34 2.68.01.1z" id="h-path4"/>
        <path d="M132.306 92.093a12.106 12.106 0 0 0 1.81 6.4l2.55-1.58a9.111 9.111 0 0 1-1.37-4.82h-3 .01z" id="h-path5"/>
        <path id="h-path6" d="M132.296 86.153h3v-5.93h-3z"/>
        <path id="h-path7" d="M132.296 74.293h3v-5.93h-3z"/>
        <path d="M127.226 60.093a9.375 9.375 0 0 1 3.72 3.42l2.55-1.58a12.364 12.364 0 0 0-4.9-4.52l-1.37 2.67v.01z" id="h-path8"/>
        <path d="M118.156 51.393a13.77 13.77 0 0 0 3.64 5.49l2-2.21a10.782 10.782 0 0 1-2.85-4.3l-2.83 1 .04.02z" id="h-path9"/>
        <path d="M115.366 40.513a10.66 10.66 0 0 1 1.91 4.78l3-.41a13.683 13.683 0 0 0-2.44-6.13l-2.44 1.75-.03.01z" id="h-path10"/>
        <path d="M106.456 35.983h.18a10.7 10.7 0 0 1 4.84 1.16l1.36-2.68a13.676 13.676 0 0 0-6.2-1.49h-.21v3l.03.01z" id="h-path11"/>
        <path id="h-path12" d="M95.046 38.093l5.81-1.18-.6-2.94-5.81 1.18z"/>
        <path d="M82.646 38.033l1.38.45a13.81 13.81 0 0 0 4.31.69h.65l-.14-3h-.5a10.87 10.87 0 0 1-3.38-.54l-1.37-.45-.94 2.85h-.01z" id="h-path13"/>
        <path id="h-path14" d="M71.426 34.343l5.64 1.85.94-2.85-5.63-1.85-.94 2.85z"/>
        <path d="M60.006 30.433c.601.301 1.222.558 1.86.77l3.93 1.29.94-2.85-3.93-1.29a10.848 10.848 0 0 1-1.45-.6l-1.34 2.68h-.01z" id="h-path15"/>
        <path id="h-path16" d="M49.876 23.973l5 3.22 1.63-2.52-5-3.22z"/>
        <path id="h-path17" d="M39.876 17.523l5 3.22 1.63-2.52-5-3.22z"/>
        <path d="M30.036 12.353c1.555.22 3.042.776 4.36 1.63l.5.32 1.63-2.52-.5-.32a13.803 13.803 0 0 0-5.56-2.08l-.42 3-.01-.03z" id="h-path18"/>
        <path id="h-path19" d="M18.966 14.243l5.77-1.36-.69-2.92-5.77 1.36z"/>
        <path d="M6.426 12.083a13.803 13.803 0 0 0 6.07 2.58l.48-3a10.812 10.812 0 0 1-4.75-2l-1.8 2.4v.02z" id="h-path20"/>
        <path d="M.886.573v.43a13.767 13.767 0 0 0 1.35 6l2.7-1.3a10.763 10.763 0 0 1-1.05-4.67v-.43h-3v-.03z" id="h-path21"/>
      </g>
      <g id="moountainGroupAll" transform="translate(83 119.901)" fill="#EEF0F1">
        <path id="mountain1" d="M20.323 107.45L12.38 91.566.469 115.392h31.767l-7.942-15.884z"/>
        <path id="mountain2" d="M155.477 48.858l-7.942-15.883L135.622 56.8h31.768l-7.942-15.884z"/>
        <path id="mountain3" d="M97.787 24.669L85.623.34 67.377 36.833h48.656l-12.164-24.328z"/>
      </g>
    </g>
    <g id="telescopeGroup" transform="translate(95 313)">
      <g id="telescope-legs" transform="translate(61 31)" fill="#888E95">
        <path d="M52.568 242.439V.916H50.14v241.523a1.214 1.214 0 1 0 2.427 0" id="Fill-14"/>
        <path d="M2.647 237.094L53.175.916 50.8.408.273 236.586a1.214 1.214 0 0 0 2.374.508" id="Fill-16"/>
        <path d="M116.662 234.332L54.186 1.03l-2.345.628 62.476 233.302a1.215 1.215 0 0 0 2.345-.627" id="Fill-18"/>
        <path d="M61.7 219.285L52.795.863l-2.426.1 8.906 218.421a1.213 1.213 0 1 0 2.425-.099" id="Fill-20"/>
      </g>
      <g id="telescope-triangle" transform="translate(105 18)" fill="#4E5055">
        <path d="M10.498 17.55L16.65 3.94a2.544 2.544 0 0 0-4.636-2.096L5.861 15.455a2.545 2.545 0 0 0 1.27 3.367 2.545 2.545 0 0 0 3.367-1.271" id="Fill-22"/>
        <path d="M10.672 15.77L5.118 1.903a2.544 2.544 0 1 0-4.723 1.89L5.95 17.663a2.544 2.544 0 1 0 4.723-1.892" id="Fill-24"/>
      </g>
      <g id="telescope-main">
        <g id="telescope3" transform="translate(146 12)">
          <path d="M77.496 8.572l.022-1.18c.03-1.812-2.525-3.325-5.709-3.38L5.772.216C2.707.163.2 1.533.17 3.276l-.117 6.743c-.03 1.743 2.43 3.199 5.492 3.252l66.13-1.518c3.184.055 5.79-1.37 5.822-3.181" id="Fill-26" fill="#A6A8AB"/>
          <path d="M.048 10.355l.064-3.708 77.395 1.334-.016.94c-.027 1.62-2.94 2.881-6.503 2.82l-64.78 1.541c-3.43-.059-6.187-1.37-6.16-2.927" id="Fill-28" fill="#58595B" opacity=".2"/>
        </g>
        <g id="telescope2" transform="translate(79 6)">
          <path d="M76.105 15.835l.104-6.063c.053-3.045-2.422-5.558-5.527-5.611L6.276.623C3.288.57.826 2.903.774 5.835L.58 17.169c-.05 2.93 2.331 5.347 5.318 5.398l64.49-1.315c3.106.053 5.665-2.372 5.718-5.417" id="Fill-30" fill="#BBBDBF"/>
          <path d="M.57 17.734l.107-6.233 75.48 1.302-.062 3.62c-.046 2.72-2.902 4.877-6.378 4.817L6.543 22.578C3.199 22.521.525 20.352.57 17.734" id="Fill-32" fill="#58595B" opacity=".2"/>
        </g>
        <g id="telescope1" transform="translate(1)">
          <path d="M85.784 23.892L86 11.36a7.084 7.084 0 0 0-6.96-7.205L8.033.503A6.815 6.815 0 0 0 1.101 7.2L.792 25.122a6.815 6.815 0 0 0 6.697 6.932l71.09-1.202a7.083 7.083 0 0 0 7.205-6.96" id="Fill-34" fill="#D0D2D3"/>
          <path d="M.792 25.122l.155-8.96 84.945 1.463-.108 6.267a7.084 7.084 0 0 1-7.204 6.96L7.489 32.054a6.816 6.816 0 0 1-6.697-6.932" id="Fill-36" fill="#58595B" opacity=".2"/>
        </g>
        <path d="M224.582 23.67l.127-7.337a2.34 2.34 0 0 0-4.677-.08l-.127 7.336a2.338 2.338 0 1 0 4.677.081" id="Fill-38" fill="#4E5055"/>
        <path d="M5.54 32.003C2.484 31.95.131 24.845.281 16.133.432 7.42 3.03.398 6.083.452c3.053.051 5.407 7.157 5.257 15.87-.15 8.712-2.748 15.733-5.8 15.68" id="Fill-40" fill="#58595B"/>
      </g>
    </g>
  </g>
</svg>